<svg width="171" height="33" viewBox="0 0 171 33" fill="none" xmlns="http://www.w3.org/2000/svg">
<path d="M5.55378 12.2609L8.79718 10.3904L6.98677 7.25634H24.0132L15.5027 22.002L13.6923 18.8625L10.449 20.7386L15.5027 29.4898L30.5 3.50977H0.5L5.55378 12.2609Z" fill="#0080FF"/>
<path d="M40.18 26V8.72H45.772C45.908 8.72 46.188 8.724 46.612 8.732C47.036 8.74 47.444 8.768 47.836 8.816C49.228 8.984 50.408 9.468 51.376 10.268C52.344 11.068 53.08 12.084 53.584 13.316C54.088 14.548 54.34 15.896 54.34 17.36C54.34 18.824 54.088 20.172 53.584 21.404C53.08 22.636 52.344 23.652 51.376 24.452C50.408 25.252 49.228 25.736 47.836 25.904C47.444 25.952 47.036 25.98 46.612 25.988C46.188 25.996 45.908 26 45.772 26H40.18ZM43.492 22.928H45.772C45.988 22.928 46.28 22.924 46.648 22.916C47.016 22.9 47.348 22.864 47.644 22.808C48.396 22.656 49.008 22.304 49.48 21.752C49.96 21.2 50.312 20.536 50.536 19.76C50.768 18.984 50.884 18.184 50.884 17.36C50.884 16.496 50.764 15.676 50.524 14.9C50.292 14.124 49.936 13.468 49.456 12.932C48.976 12.396 48.372 12.056 47.644 11.912C47.348 11.848 47.016 11.812 46.648 11.804C46.28 11.796 45.988 11.792 45.772 11.792H43.492V22.928ZM60.8191 26.36C59.8911 26.36 59.1031 26.184 58.4551 25.832C57.8151 25.472 57.3271 24.996 56.9911 24.404C56.6631 23.804 56.4991 23.144 56.4991 22.424C56.4991 21.824 56.5911 21.276 56.7751 20.78C56.9591 20.284 57.2551 19.848 57.6631 19.472C58.0791 19.088 58.6351 18.768 59.3311 18.512C59.8111 18.336 60.3831 18.18 61.0471 18.044C61.7111 17.908 62.4631 17.78 63.3031 17.66C64.1431 17.532 65.0671 17.392 66.0751 17.24L64.8991 17.888C64.8991 17.12 64.7151 16.556 64.3471 16.196C63.9791 15.836 63.3631 15.656 62.4991 15.656C62.0191 15.656 61.5191 15.772 60.9991 16.004C60.4791 16.236 60.1151 16.648 59.9071 17.24L56.9551 16.304C57.2831 15.232 57.8991 14.36 58.8031 13.688C59.7071 13.016 60.9391 12.68 62.4991 12.68C63.6431 12.68 64.6591 12.856 65.5471 13.208C66.4351 13.56 67.1071 14.168 67.5631 15.032C67.8191 15.512 67.9711 15.992 68.0191 16.472C68.0671 16.952 68.0911 17.488 68.0911 18.08V26H65.2351V23.336L65.6431 23.888C65.0111 24.76 64.3271 25.392 63.5911 25.784C62.8631 26.168 61.9391 26.36 60.8191 26.36ZM61.5151 23.792C62.1151 23.792 62.6191 23.688 63.0271 23.48C63.4431 23.264 63.7711 23.02 64.0111 22.748C64.2591 22.476 64.4271 22.248 64.5151 22.064C64.6831 21.712 64.7791 21.304 64.8031 20.84C64.8351 20.368 64.8511 19.976 64.8511 19.664L65.8111 19.904C64.8431 20.064 64.0591 20.2 63.4591 20.312C62.8591 20.416 62.3751 20.512 62.0071 20.6C61.6391 20.688 61.3151 20.784 61.0351 20.888C60.7151 21.016 60.4551 21.156 60.2551 21.308C60.0631 21.452 59.9191 21.612 59.8231 21.788C59.7351 21.964 59.6911 22.16 59.6911 22.376C59.6911 22.672 59.7631 22.928 59.9071 23.144C60.0591 23.352 60.2711 23.512 60.5431 23.624C60.8151 23.736 61.1391 23.792 61.5151 23.792ZM76.2753 26.36C74.6433 26.36 73.3233 25.992 72.3153 25.256C71.3153 24.512 70.7073 23.464 70.4913 22.112L73.8273 21.608C73.9633 22.216 74.2633 22.692 74.7273 23.036C75.1993 23.38 75.7953 23.552 76.5153 23.552C77.1073 23.552 77.5633 23.44 77.8833 23.216C78.2033 22.984 78.3633 22.664 78.3633 22.256C78.3633 22 78.2993 21.796 78.1713 21.644C78.0433 21.484 77.7553 21.328 77.3073 21.176C76.8673 21.024 76.1793 20.824 75.2433 20.576C74.1873 20.304 73.3433 20 72.7113 19.664C72.0793 19.328 71.6233 18.928 71.3433 18.464C71.0633 17.992 70.9233 17.424 70.9233 16.76C70.9233 15.928 71.1353 15.208 71.5593 14.6C71.9833 13.984 72.5793 13.512 73.3473 13.184C74.1233 12.848 75.0353 12.68 76.0833 12.68C77.0993 12.68 77.9993 12.836 78.7833 13.148C79.5673 13.46 80.1993 13.904 80.6793 14.48C81.1673 15.056 81.4673 15.736 81.5793 16.52L78.2433 17.12C78.1873 16.64 77.9793 16.26 77.6193 15.98C77.2593 15.7 76.7713 15.536 76.1553 15.488C75.5553 15.448 75.0713 15.528 74.7033 15.728C74.3433 15.928 74.1633 16.216 74.1633 16.592C74.1633 16.816 74.2393 17.004 74.3913 17.156C74.5513 17.308 74.8753 17.464 75.3633 17.624C75.8593 17.784 76.6113 17.992 77.6193 18.248C78.6033 18.504 79.3913 18.804 79.9833 19.148C80.5833 19.484 81.0193 19.892 81.2913 20.372C81.5633 20.844 81.6993 21.416 81.6993 22.088C81.6993 23.416 81.2193 24.46 80.2593 25.22C79.2993 25.98 77.9713 26.36 76.2753 26.36ZM93.1683 26V19.88C93.1683 19.584 93.1523 19.208 93.1203 18.752C93.0883 18.288 92.9883 17.824 92.8203 17.36C92.6523 16.896 92.3763 16.508 91.9923 16.196C91.6163 15.884 91.0803 15.728 90.3843 15.728C90.1043 15.728 89.8043 15.772 89.4843 15.86C89.1643 15.948 88.8643 16.12 88.5843 16.376C88.3043 16.624 88.0723 16.992 87.8883 17.48C87.7123 17.968 87.6243 18.616 87.6243 19.424L85.7523 18.536C85.7523 17.512 85.9603 16.552 86.3763 15.656C86.7923 14.76 87.4163 14.036 88.2483 13.484C89.0883 12.932 90.1443 12.656 91.4163 12.656C92.4323 12.656 93.2603 12.828 93.9003 13.172C94.5403 13.516 95.0363 13.952 95.3883 14.48C95.7483 15.008 96.0043 15.56 96.1562 16.136C96.3083 16.704 96.4003 17.224 96.4323 17.696C96.4643 18.168 96.4803 18.512 96.4803 18.728V26H93.1683ZM84.3123 26V8.72H87.2163V17.6H87.6243V26H84.3123ZM105.954 26.36C104.666 26.36 103.59 26.06 102.726 25.46C101.862 24.86 101.21 24.044 100.77 23.012C100.338 21.98 100.122 20.816 100.122 19.52C100.122 18.224 100.338 17.06 100.77 16.028C101.202 14.996 101.838 14.18 102.678 13.58C103.518 12.98 104.554 12.68 105.786 12.68C107.026 12.68 108.106 12.976 109.026 13.568C109.946 14.16 110.658 14.972 111.162 16.004C111.674 17.028 111.93 18.2 111.93 19.52C111.93 20.816 111.678 21.98 111.174 23.012C110.678 24.044 109.982 24.86 109.086 25.46C108.19 26.06 107.146 26.36 105.954 26.36ZM99.5701 26V8.72H102.858V17.12H102.45V26H99.5701ZM105.426 23.456C106.13 23.456 106.706 23.28 107.154 22.928C107.602 22.576 107.934 22.104 108.15 21.512C108.366 20.912 108.474 20.248 108.474 19.52C108.474 18.8 108.362 18.144 108.138 17.552C107.914 16.952 107.566 16.476 107.094 16.124C106.63 15.764 106.034 15.584 105.306 15.584C104.626 15.584 104.074 15.748 103.65 16.076C103.234 16.404 102.93 16.864 102.738 17.456C102.546 18.048 102.45 18.736 102.45 19.52C102.45 20.304 102.546 20.992 102.738 21.584C102.93 22.176 103.242 22.636 103.674 22.964C104.114 23.292 104.698 23.456 105.426 23.456ZM120.403 26.36C119.099 26.36 117.955 26.068 116.971 25.484C115.987 24.9 115.219 24.096 114.667 23.072C114.123 22.04 113.851 20.856 113.851 19.52C113.851 18.168 114.131 16.98 114.691 15.956C115.251 14.924 116.023 14.12 117.007 13.544C117.991 12.968 119.123 12.68 120.403 12.68C121.707 12.68 122.851 12.972 123.835 13.556C124.827 14.14 125.599 14.948 126.151 15.98C126.703 17.004 126.979 18.184 126.979 19.52C126.979 20.864 126.699 22.052 126.139 23.084C125.587 24.108 124.815 24.912 123.823 25.496C122.839 26.072 121.699 26.36 120.403 26.36ZM120.403 23.312C121.451 23.312 122.231 22.96 122.743 22.256C123.263 21.544 123.523 20.632 123.523 19.52C123.523 18.368 123.259 17.448 122.731 16.76C122.211 16.072 121.435 15.728 120.403 15.728C119.691 15.728 119.107 15.888 118.651 16.208C118.195 16.528 117.855 16.972 117.631 17.54C117.415 18.108 117.307 18.768 117.307 19.52C117.307 20.68 117.567 21.604 118.087 22.292C118.615 22.972 119.387 23.312 120.403 23.312ZM133.218 26.36C132.29 26.36 131.502 26.184 130.854 25.832C130.214 25.472 129.726 24.996 129.39 24.404C129.062 23.804 128.898 23.144 128.898 22.424C128.898 21.824 128.99 21.276 129.174 20.78C129.358 20.284 129.654 19.848 130.062 19.472C130.478 19.088 131.034 18.768 131.73 18.512C132.21 18.336 132.782 18.18 133.446 18.044C134.11 17.908 134.862 17.78 135.702 17.66C136.542 17.532 137.466 17.392 138.474 17.24L137.298 17.888C137.298 17.12 137.114 16.556 136.746 16.196C136.378 15.836 135.762 15.656 134.898 15.656C134.418 15.656 133.918 15.772 133.398 16.004C132.878 16.236 132.514 16.648 132.306 17.24L129.354 16.304C129.682 15.232 130.298 14.36 131.202 13.688C132.106 13.016 133.338 12.68 134.898 12.68C136.042 12.68 137.058 12.856 137.946 13.208C138.834 13.56 139.506 14.168 139.962 15.032C140.218 15.512 140.37 15.992 140.418 16.472C140.466 16.952 140.49 17.488 140.49 18.08V26H137.634V23.336L138.042 23.888C137.41 24.76 136.726 25.392 135.99 25.784C135.262 26.168 134.338 26.36 133.218 26.36ZM133.914 23.792C134.514 23.792 135.018 23.688 135.426 23.48C135.842 23.264 136.17 23.02 136.41 22.748C136.658 22.476 136.826 22.248 136.914 22.064C137.082 21.712 137.178 21.304 137.202 20.84C137.234 20.368 137.25 19.976 137.25 19.664L138.21 19.904C137.242 20.064 136.458 20.2 135.858 20.312C135.258 20.416 134.774 20.512 134.406 20.6C134.038 20.688 133.714 20.784 133.434 20.888C133.114 21.016 132.854 21.156 132.654 21.308C132.462 21.452 132.318 21.612 132.222 21.788C132.134 21.964 132.09 22.16 132.09 22.376C132.09 22.672 132.162 22.928 132.306 23.144C132.458 23.352 132.67 23.512 132.942 23.624C133.214 23.736 133.538 23.792 133.914 23.792ZM143.61 26V13.04H146.49V16.208L146.178 15.8C146.346 15.352 146.57 14.944 146.85 14.576C147.13 14.208 147.474 13.904 147.882 13.664C148.194 13.472 148.534 13.324 148.902 13.22C149.27 13.108 149.65 13.04 150.042 13.016C150.434 12.984 150.826 12.992 151.218 13.04V16.088C150.858 15.976 150.438 15.94 149.958 15.98C149.486 16.012 149.058 16.12 148.674 16.304C148.29 16.48 147.966 16.716 147.702 17.012C147.438 17.3 147.238 17.644 147.102 18.044C146.966 18.436 146.898 18.88 146.898 19.376V26H143.61ZM158.522 26.36C157.33 26.36 156.286 26.06 155.39 25.46C154.494 24.86 153.794 24.044 153.29 23.012C152.794 21.98 152.546 20.816 152.546 19.52C152.546 18.2 152.798 17.028 153.302 16.004C153.814 14.972 154.53 14.16 155.45 13.568C156.37 12.976 157.45 12.68 158.69 12.68C159.922 12.68 160.958 12.98 161.798 13.58C162.638 14.18 163.274 14.996 163.706 16.028C164.138 17.06 164.354 18.224 164.354 19.52C164.354 20.816 164.134 21.98 163.694 23.012C163.262 24.044 162.614 24.86 161.75 25.46C160.886 26.06 159.81 26.36 158.522 26.36ZM159.05 23.456C159.778 23.456 160.358 23.292 160.79 22.964C161.23 22.636 161.546 22.176 161.738 21.584C161.93 20.992 162.026 20.304 162.026 19.52C162.026 18.736 161.93 18.048 161.738 17.456C161.546 16.864 161.238 16.404 160.814 16.076C160.398 15.748 159.85 15.584 159.17 15.584C158.442 15.584 157.842 15.764 157.37 16.124C156.906 16.476 156.562 16.952 156.338 17.552C156.114 18.144 156.002 18.8 156.002 19.52C156.002 20.248 156.11 20.912 156.326 21.512C156.542 22.104 156.874 22.576 157.322 22.928C157.77 23.28 158.346 23.456 159.05 23.456ZM162.026 26V17.12H161.618V8.72H164.906V26H162.026Z" fill="#0080FF"/>
</svg>
